<?xml version="1.0" encoding="UTF-8"?>
<svg version="1.1" viewBox="0 0 1024 1024" width="1280" height="1280" xmlns="http://www.w3.org/2000/svg">
<path transform="translate(617,112)" d="m0 0h237l12 2 12 5 13 9 9 10 7 12 4 13 1 9v227l-2 18-5 12-7 11-12 12-16 8-11 3-13 1h-224l-15-2-13-5-10-7-7-6-9-12-5-11-3-14v-240l3-12 4-9 7-11 10-10 11-7 14-5z" fill="#045A95"/>
<path transform="translate(168,112)" d="m0 0h238l12 2 12 5 13 9 9 10 7 12 4 13 1 10v225l-1 14-4 13-6 11-9 10-9 8-13 6-11 3-13 1h-223l-16-2-13-5-10-7-7-6-9-12-5-11-3-14v-240l3-12 8-16 11-12 8-6 12-6z" fill="#045A95"/>
<path transform="translate(169,560)" d="m0 0h236l13 2 12 5 13 9 9 10 7 12 4 13 1 10v225l-1 14-4 13-6 11-9 10-9 8-13 6-11 3-14 1h-222l-16-2-13-5-10-7-7-6-9-12-5-11-3-14v-240l3-12 8-16 11-12 8-6 10-5 9-3z" fill="#045A95"/>
<path transform="translate(722,560)" d="m0 0h27l23 3 21 6 15 6 16 8 15 10 14 11 17 17 10 13 8 13 10 19 7 20 4 16 2 13 1 12v16l-2 21-5 22-7 19-8 17-11 17-13 16-13 13-14 11-16 10-16 8-15 6-25 6-12 2-14 1h-12l-22-2-21-5-20-7-23-12-14-10-13-11-13-13-13-17-8-13-10-21-6-18-4-17-2-15v-30l3-20 5-19 6-16 8-16 10-16 10-13 12-13 14-12 18-12 19-10 19-7 21-5z" fill="#045A95"/>
</svg>
