<?xml version="1.0" encoding="UTF-8"?>
<svg version="1.1" viewBox="0 0 1024 1024" width="1280" height="1280" xmlns="http://www.w3.org/2000/svg">
<path transform="translate(642,272)" d="m0 0h14v272h271l1 1v10l-2 24-5 27-5 19-9 25-11 23-14 23-9 12-8 10-12 14-11 11-8 7-16 13-20 13-15 9-24 11-19 7-27 7-24 4-23 2h-22l-30-3-24-5-21-6-21-8-21-10-20-12-18-13-14-12-12-11-14-15-11-14-10-14-9-15-12-23-10-26-6-22-5-25-2-19v-38l3-25 5-24 6-20 10-25 8-16 11-19 10-14 8-10 11-13 19-19 11-9 16-12 19-12 17-9 24-10 18-6 26-6 21-3z" fill="#045894"/>
<path transform="translate(609,144)" d="m0 0h94l1 1v42l25 4 32 8 26 9 23 10 25 13 16 10 16 11 16 12h3l7-8 18-18 8-5 4-1h10l8 3 5 4 5 8 1 4v10l-5 10-25 25-2 1 2 4 9 10 11 14 11 15 11 17 10 18 8 16 9 20 12 36 7 30 4 26 2 31v17l-2 33-5 32-8 32-10 29-10 23-12 22-10 17-12 17-10 13-12 14-9 10-18 18-11 9-13 11-16 11-14 9-17 10-22 11-27 11-26 8-26 6-24 4-19 2-19 1h-17l-31-2-32-5-32-8-26-9-21-9-24-12-23-14-17-12-16-13-14-12-23-23-9-11-10-12-12-17-12-19-12-22-8-17-10-26-8-27-5-22-4-25-2-22v-43l3-29 5-27 7-27 9-26 11-25 13-25 14-22 12-16 13-16 7-8 1-4-7-6-7-8-13-13-4-9v-11l5-10 6-5 7-3h11l7 3 9 7 7 7v2l4 2v2l4 2v2l4 2 2 3 4-1 20-15 17-11 21-12 27-13 21-8 25-8 32-7 15-2v-42zm27 104-27 3-28 6-26 8-24 10-25 13-14 9-17 12-14 12-12 11-13 13-7 8-14 18-11 17-12 21-9 19-9 25-6 21-5 24-3 29v37l4 32 6 26 6 20 10 24 8 17 13 22 8 11 12 16 11 12 7 8 9 9 11 9 9 8 14 10 19 12 25 13 27 11 23 7 24 5 24 3 18 1h19l25-2 24-4 24-6 21-7 21-9 25-13 18-12 11-8 16-13 15-14 13-14 11-14 10-13 15-25 8-15 11-27 7-23 5-22 3-19 2-27v-17l-2-28-4-25-8-30-9-24-12-25-9-16-10-15-13-17-13-15-17-17-11-9-18-14-19-12-22-12-26-11-21-7-25-6-27-4-12-1z" fill="#045894"/>
<path transform="translate(571,24)" d="m0 0h169l8 3 8 7 3 6 1 6v51l-2 9-6 8-6 4-3 1-11 1h-158l-8-2-6-4-5-6-3-8v-57l4-9 8-7z" fill="#045894"/>
<path transform="translate(27,472)" d="m0 0h217l7 2 9 8 4 10v8l-3 8-7 8-7 3-9 1h-208l-8-2-6-4-5-6-3-7v-9l4-10 8-7z" fill="#045894"/>
<path transform="translate(75,568)" d="m0 0h170l7 3 8 7 4 10v8l-3 8-7 8-7 3-11 1h-158l-8-2-6-4-5-6-3-7v-10l4-9 8-7z" fill="#045894"/>
<path transform="translate(107,376)" d="m0 0h169l8 3 8 7 4 10v8l-3 8-7 8-7 3-9 1h-160l-8-2-6-4-5-6-3-7v-10l4-9 8-7z" fill="#045894"/>
<path transform="translate(139,664)" d="m0 0h122l9 4 7 8 3 8v9l-5 10-7 6-5 2-12 1h-109l-8-2-6-4-5-6-3-7v-10l4-9 8-7z" fill="#045894"/>
</svg>
